<?xml version="1.0" encoding="utf-8"?>
<!-- Generator: Adobe Illustrator 16.0.0, SVG Export Plug-In . SVG Version: 6.00 Build 0)  -->
<!DOCTYPE svg PUBLIC "-//W3C//DTD SVG 1.1//EN" "http://www.w3.org/Graphics/SVG/1.1/DTD/svg11.dtd">
<svg version="1.1" id="Layer_1" xmlns="http://www.w3.org/2000/svg" xmlns:xlink="http://www.w3.org/1999/xlink" x="0px" y="0px"
	 width="313.483px" height="50.592px" viewBox="0 0 313.483 50.592" enable-background="new 0 0 313.483 50.592"
	 xml:space="preserve">
<g>
	<path d="M64.149,19.418c1.435-0.279,4.302-0.53,7.063-0.53c3.334,0,5.376,0.319,7.134,1.349c1.685,0.89,2.868,2.521,2.868,4.722
		c0,2.098-1.254,4.049-3.942,5.075v0.071c2.759,0.714,4.803,2.808,4.803,5.895c0,2.2-1.005,3.908-2.509,5.075
		c-1.759,1.389-4.694,2.166-9.499,2.166c-2.693,0-4.694-0.175-5.917-0.351V19.418z M69.564,28.546h1.792
		c2.903,0,4.41-1.174,4.41-2.949c0-1.809-1.397-2.766-3.872-2.766c-1.219,0-1.904,0.068-2.33,0.178V28.546z M69.564,39.159
		c0.536,0.105,1.183,0.105,2.115,0.105c2.472,0,4.66-0.956,4.66-3.479c0-2.413-2.188-3.374-4.913-3.374h-1.862V39.159z"/>
	<path d="M88.702,35.999c0.178,2.27,2.399,3.336,4.947,3.336c1.863,0,3.37-0.247,4.84-0.743l0.716,3.658
		c-1.793,0.747-3.979,1.098-6.344,1.098c-5.949,0-9.356-3.407-9.356-8.873c0-4.404,2.797-9.269,8.855-9.269
		c5.662,0,7.814,4.366,7.814,8.665c0,0.92-0.105,1.737-0.182,2.166L88.702,35.999z M95.119,32.305c0-1.273-0.575-3.512-3.045-3.512
		c-2.334,0-3.267,2.095-3.407,3.512H95.119z"/>
	<path d="M102.07,31.171c0-2.164-0.068-3.979-0.141-5.538h4.731l0.252,2.413h0.106c0.719-1.134,2.475-2.802,5.413-2.802
		c3.587,0,6.272,2.376,6.272,7.488v10.265h-5.448v-9.624c0-2.234-0.789-3.763-2.761-3.763c-1.503,0-2.398,1.03-2.793,2.022
		c-0.145,0.356-0.181,0.853-0.181,1.348v10.017h-5.452V31.171z"/>
	<path d="M118.136,46.365c1.397-0.105,2.543-0.425,3.224-1.134c0.789-0.817,1.076-2.202,1.076-5.644V25.633h5.45v15.267
		c0,3.762-0.824,6.071-2.474,7.563c-1.612,1.455-4.161,2.129-6.738,2.129L118.136,46.365z M125.089,23.359
		c-1.829,0-3.012-1.275-3.012-2.875c0-1.633,1.22-2.872,3.083-2.872c1.862,0,3.013,1.239,3.05,2.872c0,1.6-1.188,2.875-3.085,2.875
		H125.089z"/>
	<path d="M145.38,38.803c0,1.636,0.068,3.234,0.284,4.194h-4.911l-0.32-1.741h-0.11c-1.146,1.383-2.94,2.126-5.018,2.126
		c-3.552,0-5.666-2.555-5.666-5.322c0-4.508,4.085-6.638,10.291-6.638v-0.215c0-0.923-0.502-2.238-3.191-2.238
		c-1.792,0-3.691,0.604-4.841,1.277l-1.005-3.443c1.22-0.671,3.622-1.559,6.814-1.559c5.842,0,7.672,3.408,7.672,7.488V38.803z
		 M140.11,34.791c-2.867,0-5.089,0.68-5.089,2.738c0,1.381,0.932,2.059,2.146,2.059c1.33,0,2.475-0.893,2.833-1.989
		c0.073-0.286,0.11-0.604,0.11-0.924V34.791z"/>
	<path d="M148.356,31.171c0-2.164-0.072-3.979-0.145-5.538h4.625l0.216,2.378h0.104c0.756-1.132,2.333-2.767,5.307-2.767
		c2.296,0,4.051,1.17,4.806,2.981h0.071c0.681-0.923,1.435-1.632,2.292-2.132c0.968-0.534,2.047-0.85,3.336-0.85
		c3.372,0,5.916,2.34,5.916,7.526v10.227h-5.305v-9.411c0-2.521-0.824-3.976-2.583-3.976c-1.291,0-2.152,0.853-2.545,1.881
		c-0.106,0.391-0.183,0.921-0.183,1.348v10.158h-5.303v-9.729c0-2.165-0.789-3.657-2.543-3.657c-1.398,0-2.224,1.063-2.545,1.917
		c-0.181,0.425-0.218,0.923-0.218,1.385v10.085h-5.303V31.171z"/>
	<path d="M180.514,23.359c-1.829,0-3.013-1.275-3.013-2.875c0-1.633,1.219-2.872,3.083-2.872s3.01,1.239,3.047,2.872
		c0,1.6-1.183,2.875-3.083,2.875H180.514z M177.823,25.633h5.448v17.364h-5.448V25.633z"/>
	<path d="M186.286,31.171c0-2.164-0.075-3.979-0.146-5.538h4.734l0.251,2.413h0.104c0.718-1.134,2.476-2.802,5.415-2.802
		c3.586,0,6.276,2.376,6.276,7.488v10.265h-5.453v-9.624c0-2.234-0.786-3.763-2.76-3.763c-1.507,0-2.402,1.03-2.795,2.022
		c-0.146,0.356-0.18,0.853-0.18,1.348v10.017h-5.448V31.171z"/>
	<path d="M232.422,33.835c-0.111-2.876-0.219-6.32-0.219-9.834h-0.066c-0.789,3.055-1.796,6.462-2.728,9.267l-2.938,9.337h-4.267
		l-2.578-9.231c-0.791-2.842-1.579-6.214-2.188-9.372h-0.068c-0.111,3.23-0.257,6.923-0.398,9.905l-0.463,9.091h-5.058l1.545-23.932
		h7.275l2.366,8.021c0.79,2.737,1.504,5.719,2.042,8.522h0.144c0.646-2.77,1.469-5.893,2.295-8.591l2.548-7.952h7.167l1.293,23.932
		h-5.306L232.422,33.835z"/>
	<path d="M248.912,43.382c-5.125,0-9.071-3.332-9.071-8.943c0-5.609,3.729-9.194,9.396-9.194c5.338,0,8.922,3.655,8.922,8.911
		c0,6.319-4.552,9.227-9.211,9.227H248.912z M249.021,39.516c2.151,0,3.473-2.098,3.473-5.221c0-2.557-0.998-5.181-3.473-5.181
		c-2.582,0-3.587,2.624-3.587,5.215c0,2.949,1.258,5.187,3.547,5.187H249.021z"/>
	<path d="M268.34,43.382c-5.124,0-9.07-3.332-9.07-8.943c0-5.609,3.731-9.194,9.394-9.194c5.343,0,8.926,3.655,8.926,8.911
		c0,6.319-4.552,9.227-9.211,9.227H268.34z M268.449,39.516c2.151,0,3.478-2.098,3.478-5.221c0-2.557-1.01-5.181-3.478-5.181
		c-2.58,0-3.587,2.624-3.587,5.215c0,2.949,1.254,5.187,3.547,5.187H268.449z"/>
	<path d="M279.637,31.35c0-2.557-0.038-4.226-0.148-5.717h4.66l0.217,3.232h0.146c0.896-2.559,3.011-3.621,4.728-3.621
		c0.504,0,0.754,0.034,1.15,0.105v5.076c-0.465-0.072-0.896-0.142-1.508-0.142c-2.007,0-3.367,1.03-3.724,2.736
		c-0.074,0.353-0.111,0.742-0.111,1.207v8.77h-5.447L279.637,31.35z"/>
	<path d="M295.808,35.999c0.182,2.27,2.401,3.336,4.945,3.336c1.868,0,3.373-0.247,4.841-0.743l0.718,3.658
		c-1.793,0.747-3.979,1.098-6.347,1.098c-5.949,0-9.358-3.407-9.358-8.873c0-4.404,2.799-9.269,8.854-9.269
		c5.669,0,7.816,4.366,7.816,8.665c0,0.92-0.104,1.737-0.178,2.166L295.808,35.999z M302.226,32.305
		c0-1.273-0.576-3.512-3.048-3.512c-2.333,0-3.264,2.095-3.405,3.512H302.226z"/>
	<path d="M310.602,24.588c1.604,0,2.882,1.292,2.882,2.905c0,1.645-1.277,2.92-2.897,2.92c-1.598,0-2.906-1.275-2.906-2.92
		c0-1.613,1.309-2.905,2.906-2.905H310.602z M310.586,25.04c-1.289,0-2.347,1.096-2.347,2.453c0,1.385,1.058,2.468,2.362,2.468
		c1.305,0.015,2.348-1.083,2.348-2.453c0-1.372-1.043-2.468-2.348-2.468H310.586z M310.042,29.187h-0.523v-3.241
		c0.276-0.038,0.531-0.08,0.927-0.08c0.494,0,0.821,0.107,1.018,0.247c0.193,0.146,0.298,0.359,0.298,0.672
		c0,0.424-0.286,0.684-0.636,0.789v0.025c0.283,0.051,0.479,0.309,0.544,0.79c0.078,0.5,0.159,0.692,0.209,0.798h-0.549
		c-0.073-0.105-0.155-0.399-0.219-0.824c-0.076-0.415-0.287-0.571-0.706-0.571h-0.362V29.187z M310.042,27.388h0.375
		c0.429,0,0.796-0.15,0.796-0.552c0-0.284-0.208-0.571-0.796-0.571c-0.168,0-0.284,0.013-0.375,0.027V27.388z"/>
	<path d="M28.102,0L0,45.957h55.876L28.102,0z M19.681,40.487l4.952-8.15l2.813,4.477l-0.792,1.292l4.181,0.009l-6.955-11.833
		l-8.673,14.243l-5.982,0.011l14.099-23.128l13.729,23.091L19.681,40.487z M33.306,27.149l-0.481,0.804l-2.728-4.408l3.527-5.948
		l13.653,22.933h-5.85L33.306,27.149z"/>
</g>
</svg>
